<svg xmlns="http://www.w3.org/2000/svg" viewBox="-0.13 0 102 97">
  <!-- Skip mascot silhouette for CSS mask-image usage (white = visible) -->
  <path d="M93.85,41.56c-.84,0-1.62.2-2.37.55-3-4.35-7.49-8.12-13.04-11.04l.04-7.18v-14.44h-10.24v17.6c-1.52-.43-3.07-.8-4.67-1.11V0h-10.24v24.72s-.09,0-.14,0h-4.38s-.1,0-.14,0V7.3h-10.24v18.62c-1.6.32-3.15.69-4.67,1.11v-11.67h-10.24v6.09l.04,9.6c-5.55,2.92-10.04,6.7-13.04,11.04-.75-.35-1.53-.55-2.37-.55-4.5,0-8.14,5.61-8.14,12.51s3.64,12.53,8.14,12.53c.58,0,1.14-.12,1.67-.29,4.1,6.62,11.54,12.06,20.98,15.28l.79.13v7.05c0,2.97,1.45,5.58,3.87,6.99,1.18.69,2.5,1.04,3.85,1.03,1.4,0,2.83-.37,4.15-1.12l7.54-4.29,7.56,4.3c1.31.74,2.73,1.12,4.13,1.12s2.67-.35,3.85-1.04c2.42-1.41,3.86-4.02,3.86-6.98v-7.05l.79-.13c9.44-3.22,16.89-8.66,20.98-15.28.54.17,1.09.29,1.68.29,4.5,0,8.14-5.61,8.14-12.53s-3.63-12.51-8.14-12.51" fill="white"/>
</svg>
