<?xml version="1.0" encoding="UTF-8"?><svg id="a" xmlns="http://www.w3.org/2000/svg" viewBox="0 0 448.28 57.11"><path d="M428.73,44.89v-16.92c.7-1.34,1.66-2.37,2.88-3.09,1.22-.72,2.59-1.08,4.12-1.08,2.2,0,3.92.65,5.17,1.94,1.25,1.3,1.87,3.07,1.87,5.33v13.81h2.01v-14.36c0-1.71-.36-3.21-1.08-4.51-.72-1.3-1.72-2.3-3.02-3.02-1.3-.72-2.8-1.08-4.51-1.08-3.14,0-5.63,1.21-7.46,3.61v-3.16h-2.01v22.51h2.01ZM407.08,42.12c-1.39-.87-2.49-2.04-3.29-3.52-.81-1.48-1.21-3.13-1.21-4.96s.4-3.48,1.21-4.96c.81-1.48,1.91-2.65,3.29-3.52,1.39-.87,2.94-1.31,4.64-1.31s3.25.44,4.64,1.31c1.39.87,2.49,2.04,3.29,3.52.81,1.48,1.21,3.13,1.21,4.96s-.41,3.48-1.21,4.96c-.81,1.48-1.91,2.65-3.29,3.52-1.39.87-2.94,1.3-4.64,1.3s-3.26-.43-4.64-1.3M417.42,43.79c1.69-1.04,3.04-2.45,4.03-4.23.99-1.78,1.49-3.76,1.49-5.92s-.5-4.18-1.49-5.95c-.99-1.77-2.33-3.17-4.03-4.21-1.69-1.04-3.59-1.56-5.69-1.56s-3.97.52-5.67,1.56c-1.71,1.04-3.06,2.44-4.05,4.21-.99,1.77-1.49,3.75-1.49,5.95s.5,4.14,1.49,5.92c.99,1.79,2.34,3.19,4.05,4.23,1.71,1.04,3.6,1.56,5.67,1.56s4-.52,5.69-1.56M397.14,16.8c.32-.34.48-.75.48-1.24s-.16-.9-.48-1.24c-.32-.34-.74-.5-1.26-.5-.49,0-.9.17-1.24.5-.34.34-.5.75-.5,1.24s.17.9.5,1.24c.34.34.75.5,1.24.5.52,0,.94-.17,1.26-.5M396.89,22.38h-2.01v22.51h2.01v-22.51ZM390.57,45.21c.61-.09,1.2-.25,1.78-.46v-1.97c-.52.21-1.02.37-1.51.48-.49.11-1.08.16-1.79.16-1.31,0-2.25-.28-2.81-.84s-.85-1.49-.85-2.77v-15.6h6.95v-1.83h-6.95v-6.31l-2.01.64v5.67h-4.94v1.83h4.94v16.29c0,1.52.46,2.71,1.37,3.57.91.85,2.23,1.28,3.94,1.28.64,0,1.26-.05,1.87-.14M373.12,44.43c1.54-.61,2.89-1.45,4.05-2.51l-1.37-1.65c-.98.95-2.1,1.71-3.36,2.29s-2.57.87-3.91.87c-1.71,0-3.25-.43-4.64-1.3-1.39-.87-2.49-2.04-3.29-3.52-.81-1.48-1.21-3.13-1.21-4.96s.4-3.48,1.21-4.96c.81-1.48,1.9-2.65,3.29-3.52,1.39-.87,2.93-1.31,4.64-1.31,1.34,0,2.64.28,3.91.85,1.27.56,2.39,1.33,3.36,2.31l1.37-1.65c-1.16-1.07-2.51-1.91-4.05-2.52-1.54-.61-3.07-.91-4.6-.91-2.07,0-3.96.52-5.67,1.56s-3.06,2.44-4.05,4.21c-.99,1.77-1.49,3.75-1.49,5.95s.49,4.18,1.49,5.95c.99,1.77,2.34,3.17,4.05,4.21s3.6,1.56,5.67,1.56c1.52,0,3.06-.31,4.6-.92M337.65,44.89v-16.92c.7-1.34,1.66-2.37,2.88-3.09,1.22-.72,2.59-1.08,4.12-1.08,2.2,0,3.92.65,5.17,1.94,1.25,1.3,1.88,3.07,1.88,5.33v13.81h2.01v-14.36c0-1.71-.36-3.21-1.07-4.51-.72-1.3-1.73-2.3-3.02-3.02s-2.8-1.08-4.5-1.08c-3.14,0-5.63,1.21-7.46,3.61v-3.16h-2.01v22.51h2.01ZM328.7,41.78v3.11h2.01v-22.51h-2.01v16.92c-.7,1.31-1.66,2.33-2.88,3.06-1.22.73-2.59,1.1-4.12,1.1-2.2,0-3.92-.65-5.17-1.97-1.25-1.31-1.87-3.08-1.87-5.31v-13.81h-2.01v14.36c0,1.71.37,3.21,1.1,4.51.73,1.3,1.74,2.3,3.04,3.02,1.3.72,2.78,1.08,4.46,1.08,3.2,0,5.69-1.19,7.46-3.57M303.64,43.88c1.74-1.01,3.08-2.43,4.02-4.28.95-1.84,1.42-4.05,1.42-6.61V12.87h-2.1v20.13c0,3.2-.85,5.74-2.56,7.62-1.71,1.88-4.01,2.81-6.91,2.81-2.17,0-4.02-.56-5.58-1.69-1.56-1.13-2.77-2.75-3.66-4.85l-1.92.87c1.01,2.5,2.46,4.4,4.37,5.7,1.9,1.3,4.15,1.94,6.75,1.94,2.38,0,4.44-.5,6.18-1.51M279.77,44.89v-15.37c.61-.97,1.41-1.73,2.4-2.26.99-.53,2.07-.8,3.22-.8.64,0,1.27.06,1.88.18.61.12,1.16.3,1.65.55v-6.45c-.55-.37-1.48-.56-2.79-.59-1.31,0-2.5.25-3.57.75-1.07.5-2,1.24-2.79,2.22v-2.42h-7.41v24.2h7.41ZM253.44,28.07c.47-.56,1.04-1,1.72-1.3.67-.3,1.42-.46,2.24-.46s1.52.16,2.2.48c.67.32,1.26.76,1.76,1.33.5.56.88,1.24,1.12,2.04h-10.11c.24-.82.6-1.52,1.07-2.08M263.5,44.47c1.6-.58,3.17-1.51,4.69-2.79l-4.9-4.35c-.58.58-1.28,1.03-2.1,1.35-.82.32-1.74.48-2.75.48-.91,0-1.77-.16-2.56-.48-.79-.32-1.47-.77-2.03-1.35-.56-.58-1.02-1.25-1.35-2.01h17.25v-1.83c0-2.56-.53-4.83-1.58-6.82-1.05-1.98-2.49-3.54-4.32-4.69-1.83-1.14-3.94-1.72-6.31-1.72s-4.48.55-6.4,1.67c-1.92,1.11-3.44,2.62-4.55,4.5-1.11,1.89-1.67,4.01-1.67,6.36s.58,4.47,1.74,6.36c1.16,1.89,2.74,3.39,4.73,4.51,2,1.11,4.23,1.67,6.7,1.67,2.01,0,3.82-.29,5.42-.87M227.12,38.44c-.88-.34-1.65-.79-2.29-1.37v-8.46c.67-.64,1.43-1.12,2.29-1.44s1.8-.48,2.84-.48c1.19,0,2.26.27,3.23.8.96.53,1.72,1.26,2.29,2.2.56.93.84,1.97.84,3.13s-.28,2.2-.84,3.13c-.56.93-1.32,1.66-2.27,2.2-.95.54-2.03.8-3.25.8-1.01,0-1.95-.17-2.84-.5M224.74,44.89v-1.37c.92.55,1.91.97,2.97,1.26,1.07.29,2.16.43,3.29.43,2.35,0,4.48-.55,6.38-1.65,1.91-1.1,3.41-2.58,4.53-4.46,1.11-1.88,1.67-3.97,1.67-6.29s-.55-4.42-1.65-6.29c-1.1-1.88-2.58-3.37-4.44-4.49-1.86-1.11-3.95-1.67-6.27-1.67s-4.51.67-6.41,2.01v-10.66l-7.41,1.14v32.02h7.32ZM183.69,44.89v-16.56c.46-.58,1.01-1.01,1.67-1.3.66-.29,1.4-.43,2.22-.43,1.19,0,2.14.4,2.86,1.19.72.79,1.07,1.86,1.07,3.2v13.91h7.41v-14.91c0-.28,0-.54-.02-.8-.01-.26-.04-.51-.07-.76.49-.61,1.07-1.07,1.74-1.37.67-.31,1.42-.46,2.24-.46,1.19,0,2.14.4,2.86,1.19s1.08,1.86,1.08,3.2v13.91h7.41v-14.91c0-1.92-.41-3.61-1.21-5.08-.81-1.46-1.91-2.61-3.31-3.43-1.4-.82-3.02-1.23-4.85-1.23-1.59,0-3.05.29-4.39.87-1.34.58-2.5,1.4-3.48,2.47-.83-1.07-1.85-1.89-3.07-2.47-1.22-.58-2.59-.87-4.12-.87-2.32,0-4.33.67-6.04,2.01v-1.56h-7.41v24.2h7.41ZM157.36,28.07c.47-.56,1.04-1,1.72-1.3.67-.3,1.42-.46,2.24-.46s1.52.16,2.2.48c.67.32,1.26.76,1.76,1.33.5.56.88,1.24,1.12,2.04h-10.11c.24-.82.6-1.52,1.08-2.08M167.42,44.47c1.6-.58,3.16-1.51,4.69-2.79l-4.9-4.35c-.58.58-1.28,1.03-2.1,1.35-.83.32-1.74.48-2.75.48-.91,0-1.77-.16-2.56-.48-.79-.32-1.47-.77-2.03-1.35-.56-.58-1.02-1.25-1.35-2.01h17.25v-1.83c0-2.56-.53-4.83-1.58-6.82-1.05-1.98-2.49-3.54-4.32-4.69-1.83-1.14-3.93-1.72-6.31-1.72s-4.48.55-6.41,1.67c-1.92,1.11-3.44,2.62-4.55,4.5-1.11,1.89-1.67,4.01-1.67,6.36s.58,4.47,1.74,6.36c1.16,1.89,2.74,3.39,4.74,4.51,2,1.11,4.23,1.67,6.7,1.67,2.01,0,3.82-.29,5.42-.87M118.71,44.89v-21.91l10.52,19.62,10.52-19.53v21.82h7.41V12.87h-9.93l-7.91,15.1-7.91-15.1h-9.93v32.02h7.23Z" fill="#fff"/><path d="M88.82,12.69v27.95s9.76,5.58,9.76,5.58c.01-.24.02-34.61.02-34.61,0-3.72-1.57-6.76-4.3-8.35-2.73-1.59-6.15-1.44-9.38.39l-33.88,19.27L17.17,3.66c-3.23-1.84-6.65-1.98-9.38-.39-2.73,1.59-4.3,4.63-4.3,8.35,0,0,0,34.39.02,34.64l9.75-5.58V12.69l27.89,15.87L4.21,49.57c.71,1.84,1.93,3.32,3.57,4.28,1.26.73,2.67,1.1,4.13,1.1,1.71,0,3.51-.5,5.25-1.49L88.82,12.69Z" fill="#fff"/><path d="M64.22,30.43l-9.86,5.64,30.56,17.39c1.74.99,3.54,1.49,5.26,1.49,1.46,0,2.87-.37,4.13-1.1,1.65-.96,2.87-2.46,3.59-4.31l-33.67-19.11Z" fill="#fff"/></svg>