<svg xmlns="http://www.w3.org/2000/svg" viewBox="0 0 230 230">
  <path d="M0 0 C1.197 0.668 2.394 1.336 3.592 2.004 C12.234 6.837 20.792 11.805 29.327 16.824 C37.26 21.476 45.269 25.98 53.312 30.438 C53.91 30.769 54.507 31.1 55.122 31.441 C61.234 34.87 61.234 34.87 67.438 38.125 C69.709 37.16 69.709 37.16 72.258 35.652 C73.255 35.09 74.253 34.527 75.281 33.948 C76.364 33.325 77.447 32.703 78.562 32.062 C79.685 31.426 80.808 30.789 81.965 30.133 C90.435 25.322 98.84 20.401 107.239 15.469 C118.242 9.027 129.394 2.857 140.566 -3.286 C142.41 -4.306 144.248 -5.338 146.079 -6.382 C146.869 -6.832 147.659 -7.282 148.473 -7.746 C149.148 -8.136 149.824 -8.526 150.52 -8.927 C156.448 -11.856 163.036 -11.676 169.188 -9.625 C175.638 -6.152 178.915 -2.712 181.438 4.125 C181.951 7.259 181.946 10.308 181.892 13.479 C181.892 14.377 181.893 15.276 181.893 16.201 C181.891 19.145 181.86 22.088 181.828 25.031 C181.821 27.082 181.815 29.134 181.811 31.185 C181.796 36.564 181.757 41.943 181.712 47.322 C181.671 52.819 181.653 58.316 181.633 63.812 C181.59 74.584 181.522 85.354 181.438 96.125 C178.573 94.739 175.729 93.326 172.901 91.867 C170.644 90.732 168.349 89.671 166.018 88.7 C162.628 87.127 160.12 85.736 157.438 83.125 C155.741 78.082 155.893 73.244 156.047 68.004 C156.047 66.534 156.041 65.064 156.031 63.595 C156.018 59.745 156.076 55.899 156.15 52.049 C156.213 48.114 156.207 44.18 156.207 40.244 C156.217 32.536 156.303 24.832 156.438 17.125 C152.485 19.335 148.534 21.546 144.582 23.758 C143.476 24.376 142.37 24.995 141.231 25.632 C131.895 30.857 122.601 36.151 113.321 41.472 C107.737 44.673 102.15 47.868 96.562 51.062 C95.965 51.404 95.367 51.746 94.751 52.098 C86.826 56.629 78.889 61.14 70.938 65.625 C62.527 70.37 54.133 75.144 45.75 79.938 C45.166 80.271 44.581 80.605 43.979 80.95 C37.987 84.375 31.996 87.803 26.011 91.241 C14.366 97.93 2.707 104.594 -9.062 111.062 C-9.97 111.565 -10.878 112.067 -11.814 112.585 C-12.649 113.04 -13.484 113.496 -14.344 113.965 C-15.066 114.36 -15.789 114.756 -16.533 115.164 C-22.269 117.881 -28.602 117.949 -34.625 116.125 C-39.398 114.15 -42.881 110.491 -45.562 106.125 C-45.562 104.805 -45.562 103.485 -45.562 102.125 C-45.022 101.835 -44.481 101.545 -43.924 101.246 C-32.122 94.897 -20.456 88.363 -8.907 81.566 C-0.017 76.35 8.975 71.333 18.003 66.362 C24.427 62.82 30.777 59.186 37.065 55.408 C39.438 54.125 39.438 54.125 41.438 54.125 C41.438 53.465 41.438 52.805 41.438 52.125 C40.704 51.843 39.971 51.561 39.216 51.271 C36.702 50.234 34.368 49.093 31.98 47.797 C30.7 47.102 30.7 47.102 29.395 46.394 C28.481 45.892 27.567 45.391 26.625 44.875 C25.666 44.351 24.707 43.826 23.719 43.286 C14.477 38.202 5.37 32.897 -3.719 27.547 C-8.103 24.968 -12.509 22.431 -16.928 19.911 C-17.89 19.362 -17.89 19.362 -18.871 18.802 C-20.435 17.909 -21.999 17.017 -23.562 16.125 C-23.525 16.942 -23.487 17.759 -23.448 18.601 C-23.106 26.338 -22.848 34.071 -22.682 41.814 C-22.593 45.794 -22.474 49.768 -22.28 53.745 C-21.06 79.461 -21.06 79.461 -25.205 85.53 C-29.148 89.11 -33.517 90.996 -38.581 92.49 C-41.159 93.316 -43.282 94.688 -45.562 96.125 C-46.222 96.125 -46.882 96.125 -47.562 96.125 C-47.655 84.546 -47.726 72.967 -47.77 61.388 C-47.791 56.01 -47.819 50.633 -47.864 45.256 C-47.908 40.062 -47.932 34.869 -47.942 29.675 C-47.949 27.698 -47.964 25.721 -47.985 23.744 C-48.015 20.965 -48.018 18.187 -48.017 15.408 C-48.031 14.599 -48.045 13.79 -48.06 12.956 C-48.013 6.348 -46.391 0.196 -41.823 -4.764 C-27.895 -17.466 -13.817 -7.747 0 0 Z" fill="#264FAF" transform="translate(47.5625,61.875)"/>
  <path d="M0 0 C2.051 0.961 2.051 0.961 4.098 2.16 C5.278 2.843 5.278 2.843 6.481 3.541 C7.333 4.043 8.185 4.545 9.062 5.062 C10.954 6.16 12.846 7.258 14.738 8.355 C16.255 9.24 16.255 9.24 17.803 10.142 C22.848 13.074 27.913 15.969 32.979 18.863 C34.753 19.877 36.525 20.892 38.297 21.907 C44.243 25.311 50.205 28.681 56.203 31.992 C57.347 32.625 58.491 33.258 59.669 33.911 C61.837 35.108 64.008 36.299 66.183 37.484 C67.154 38.02 68.125 38.557 69.125 39.109 C69.973 39.573 70.821 40.037 71.695 40.515 C74.149 42.096 76.015 43.87 78 46 C74.984 51.808 72.395 55.457 66.25 58.25 C54.159 61.04 44.857 55.778 34.625 49.75 C32.781 48.681 30.938 47.612 29.094 46.543 C28.114 45.972 27.134 45.402 26.125 44.814 C21.068 41.878 15.989 38.98 10.91 36.082 C9.13 35.065 7.35 34.048 5.57 33.03 C-5.598 26.648 -16.794 20.315 -28 14 C-28 13.34 -28 12.68 -28 12 C-24.284 9.789 -20.551 7.61 -16.812 5.438 C-15.757 4.809 -14.702 4.181 -13.615 3.533 C-12.083 2.649 -12.083 2.649 -10.52 1.746 C-9.582 1.196 -8.645 0.646 -7.679 0.08 C-4.518 -1.194 -3.196 -1.069 0 0 Z" fill="#264FAF" transform="translate(150,120)"/>
</svg>
